<svg width="100%" height="10" viewBox="0 0 696 10" fill="none" xmlns="http://www.w3.org/2000/svg">
<path d="M695.057 4.76695C694.869 4.64267 694.663 4.54217 694.445 4.46829L694.189 4.38787H694.011L693.538 4.30746C692.568 4.18111 691.828 4.14665 690.985 4.08921L688.624 3.97438C685.509 3.84802 682.407 3.76756 679.292 3.69864C673.079 3.5608 666.837 3.46131 660.565 3.40005L622.664 3.11288L604.792 3.03247C607.894 2.96355 610.996 2.8946 614.073 2.79123H615.681C625.587 2.56149 622.064 2.13651 625.127 1.8034C638.838 0.310146 628.013 -0.149294 587.022 0.10341C578.086 0.160843 568.653 0.10341 559.538 0.10341L481.668 0.0344933L404.142 0.287164L104.84 0L61.437 0.20675C46.9863 0.333102 32.5357 0.425028 18.034 0.815571C16.2212 0.815571 14.3958 0.930417 12.5703 1.01082C11.6512 1.01082 10.732 1.10274 9.77461 1.18315C9.20872 1.22661 8.6461 1.29941 8.08956 1.40133C7.92453 1.43718 7.76245 1.4833 7.60447 1.53923C7.38617 1.61831 7.18019 1.72252 6.99172 1.84932C6.53216 1.84932 5.49814 3.62972 6.43003 4.77838C6.74458 5.18673 7.18984 5.49927 7.70659 5.67436L8.08956 5.77777C8.47253 5.85818 8.71507 5.89258 8.98315 5.92703C10.898 6.06487 12.7107 6.09937 14.5872 6.17978L17.3702 6.29461H20.0892C27.3273 6.39799 34.5654 6.51287 41.7907 6.52436H51.2118C20.2296 6.92639 0.685513 7.93721 0.00893622 9.10883C-0.66764 10.2805 37.2334 9.9933 59.5732 9.90141C202.459 9.13181 345.74 9.25813 489.008 9.15476L674.747 8.93658C680.441 8.93658 685.662 8.93651 689.594 8.86759H691.968C692.402 8.86759 692.76 8.86763 693.309 8.76425H693.5H693.781L694.036 8.70683C694.228 8.6615 694.415 8.60389 694.598 8.53451L694.866 8.43117C695.254 8.23466 695.572 7.94407 695.785 7.5926C696.487 6.14529 695.262 4.59465 695.057 4.76695Z" fill="#4633FF"/>
</svg>
