<svg width="496" height="142" viewBox="0 0 496 142" fill="none" xmlns="http://www.w3.org/2000/svg">
<path d="M278.274 91.8644C280.472 91.0823 284.086 89.7607 288.55 88.0481C293.027 86.2681 298.38 84.1511 304.084 81.8857C315.519 77.2605 328.693 72.325 339.387 69.3584C351.698 65.8389 364.684 63.6005 377.859 63.9915L380.326 64.0725C381.149 64.0995 381.971 64.2207 382.78 64.2881L387.689 64.7871C389.334 64.895 390.939 65.2996 392.557 65.5828L397.398 66.5131L402.144 67.8211C403.709 68.2931 405.327 68.6303 406.851 69.2506L411.462 70.9362C412.217 71.2328 413.013 71.4756 413.755 71.8127L415.98 72.824C427.927 78.0831 438.823 85.2704 448.653 93.523C458.456 101.83 467.181 111.201 475.042 121.153C477.551 124.228 480.733 128.543 482.985 132.237C485.156 136 486.424 139.101 485.089 139.856C482.23 141.447 475.959 135.15 467.545 124.821C457.31 112.347 445.767 100.818 432.566 91.6216C430.961 90.408 429.235 89.3967 427.536 88.3179C425.837 87.2661 424.165 86.1468 422.371 85.2434C420.605 84.2994 418.865 83.3286 417.085 82.4251L411.624 79.9708C404.262 76.9637 396.616 74.6579 388.808 73.6061C377.4 71.9205 365.79 72.7701 354.409 74.9816C343.001 77.22 331.835 80.9688 320.764 85.122C309.694 89.3023 298.704 94.0219 287.403 98.2831C276.103 102.504 264.52 106.414 252.424 108.774C247.003 109.812 241.488 110.635 235.919 110.945C230.35 111.242 224.727 111.147 219.131 110.541C213.467 109.839 207.898 108.504 202.544 106.63C197.218 104.661 192.107 102.126 187.293 99.0921C182.52 96.0042 178.097 92.3229 174.132 88.1561C170.168 83.9893 166.891 79.1212 164.342 73.8757C163.763 72.5273 163.075 71.2327 162.603 69.8438L161.241 65.6501C160.607 62.7779 159.892 59.8922 159.785 56.9391C159.191 51.0463 160 45.1669 161.335 39.6381C162.63 34.4196 164.464 29.4573 166.513 24.6837C167.565 22.2969 168.536 20.0046 169.912 17.4694C171.247 15.0287 172.757 12.6958 174.564 10.5113C176.357 8.3268 178.393 6.25019 180.888 4.47021C183.356 2.71721 186.403 1.16654 190.044 0.82942C191.838 0.640634 193.725 0.856409 195.492 1.35534C196.382 1.58458 197.178 2.00259 198 2.35319C198.823 2.71728 199.537 3.27004 200.306 3.75549C201.061 4.24093 201.695 4.96908 202.369 5.58938C203.016 6.25013 203.515 7.04574 204.068 7.80088C204.54 8.58299 204.918 9.41912 205.309 10.2417C205.579 11.0642 205.862 11.9138 206.077 12.7498C206.819 16.094 206.63 19.2629 206.118 22.1891C205.579 25.1152 204.662 27.8527 203.515 30.4687C202.369 33.0577 200.953 35.5928 199.308 37.8852C197.717 39.9754 196.207 42.1329 194.548 44.1556C187.941 52.3139 180.295 59.6225 171.88 65.8794C157.371 76.6941 140.582 84.3804 122.958 88.3179C105.32 92.2959 86.8596 92.188 69.316 88.4932C61.0499 86.8076 51.0848 84.3669 42.576 80.5777C41.6994 80.1867 40.742 79.7686 39.7307 79.3236C38.7193 78.8786 37.708 78.3257 36.6292 77.7863C35.5639 77.2469 34.4582 76.6806 33.3255 76.1142C32.2062 75.5344 31.114 74.8601 30.0082 74.2263C28.9025 73.5791 27.7968 72.9319 26.718 72.2981C25.6662 71.6104 24.6414 70.9227 23.6435 70.2619C22.6456 69.5877 21.6882 68.9538 20.7847 68.3335C19.9217 67.6728 19.0992 67.039 18.344 66.4592C17.063 65.4343 15.7145 64.4501 14.4335 63.3713C13.1659 62.2925 11.8849 61.2406 10.6038 60.2697C9.10703 59.191 7.89341 58.0178 6.7607 57.0199C5.64147 55.9951 4.63012 55.1052 3.82104 54.2421C2.22985 52.4891 1.16457 51.1136 0.638664 50.1023C-0.426624 48.0796 0.638664 47.5268 3.56483 48.0392C4.84588 48.255 4.738 46.7176 7.48887 48.7673C7.59675 48.8482 7.82599 49.0235 7.93386 49.0909C10.1049 50.5338 12.2894 51.9497 14.3121 53.5544C16.4562 55.0108 18.4519 56.6288 20.542 58.1796C24.7223 61.2406 28.916 64.4095 33.5412 66.9446C55.9932 79.6471 82.4771 85.3917 108.03 82.2633C133.584 79.1079 158.018 67.4706 176.762 49.8596C182.506 44.4658 187.765 38.492 192.323 32.1138C194.373 29.1741 195.991 25.776 196.935 22.3644C197.38 20.6653 197.663 18.9528 197.717 17.3346C197.717 15.7434 197.474 14.2736 196.962 13.1004C196.449 11.9273 195.708 11.0508 194.575 10.4035C193.456 9.74275 192.269 9.37869 191.083 9.41914C188.655 9.55399 185.689 11.253 183.248 13.7882C180.753 16.2559 178.636 19.3842 176.978 22.634L176.371 23.8747L175.75 25.2366L174.55 27.9605C173.768 29.781 173.054 31.6013 172.379 33.4217C169.48 41.4451 168.051 49.6709 168.792 57.6403L168.779 57.5053C169.345 61.6586 170.437 65.758 172.366 69.5337C173.161 71.489 174.429 73.242 175.467 75.0894L177.369 77.6785C177.692 78.11 177.989 78.5549 178.326 78.973L181.414 82.4924L183.639 84.6231L184.758 85.7018L185.972 86.6861L188.386 88.655C191.784 91.0688 195.303 93.3881 199.146 95.1411C202.909 97.0424 206.927 98.4044 210.972 99.5641C213.022 99.9956 215.045 100.616 217.135 100.859L220.236 101.33L225.01 101.735L226.615 101.776L229.81 101.87C231.954 101.775 234.085 101.83 236.216 101.627L239.412 101.384L242.594 101.007C244.711 100.791 246.828 100.373 248.932 100.049C257.346 98.5392 265.558 96.2198 273.555 93.6173C274.795 93.2397 276.44 92.4982 278.274 91.8644Z" fill="black"/>
<path d="M485.512 115.881C485.7 114.985 486.395 111.817 486.619 109.745C487.173 104.963 487.455 100.193 488.244 95.364C488.362 94.6103 488.35 93.3266 491.012 93.256C493.78 93.1853 495.417 94.0568 495.346 95.4701C495.134 98.8974 494.369 102.266 494.557 105.658C494.84 110.663 493.697 115.551 492.755 120.403C492.308 122.594 491.778 124.749 491.142 126.893C490.835 127.964 490.494 129.024 490.176 130.096C489.811 131.18 489.54 132.157 489.116 133.37C488.739 134.442 488.28 135.608 487.491 136.856C487.09 137.481 486.596 138.117 485.96 138.705C485.335 139.294 484.534 139.848 483.698 140.237C481.767 141.12 479.776 141.143 478.304 140.943C476.773 140.743 475.595 140.366 474.559 140.025C471.002 138.823 467.834 136.727 464.701 134.807C463.959 134.36 462.805 134.289 462.004 133.771C461.333 133.347 460.226 132.64 459.684 132.028C459.448 131.757 459.236 131.462 458.906 131.368C457.387 130.897 457.623 129.884 459.754 127.658C460.226 127.163 460.614 126.374 461.156 126.186C461.18 126.174 461.227 126.162 461.25 126.151C463.111 125.197 463.488 126.445 464.395 126.951C468.811 129.401 473.511 131.474 478.292 132.852C479.659 133.264 480.613 133.252 480.766 133.111C480.895 133.04 481.013 132.946 481.225 132.64C481.425 132.334 481.625 131.874 481.79 131.286C481.979 130.638 481.849 129.802 482.356 129.024L482.344 129.036C482.544 128.141 482.674 127.222 482.933 126.363C483.981 123.088 484.629 119.555 485.524 116.375C485.559 116.269 485.477 116.069 485.512 115.881Z" fill="black"/>
</svg>
