<svg width="175" height="90" viewBox="0 0 175 90" fill="none" xmlns="http://www.w3.org/2000/svg">
<path d="M142.313 16.0506C140.751 15.3565 138.094 14.425 134.825 13.2104C133.154 12.6899 131.327 12.1236 129.382 11.5118C127.409 11.0095 125.327 10.4342 123.163 9.93196C118.807 9.0005 114.159 8.12386 109.584 7.68552C108.442 7.57594 107.31 7.4208 106.187 7.33861C105.063 7.27469 103.958 7.2108 102.872 7.14688C100.698 6.97337 98.6071 7.01888 96.6529 6.99148C87.6031 6.96409 78.5532 8.00519 69.7409 10.0142L66.4351 10.7723L63.1749 11.6946C60.9833 12.2608 58.8555 13.0279 56.7186 13.7402C55.641 14.078 54.5909 14.489 53.5407 14.9091L50.3901 16.1418C48.3172 17.0093 46.2625 17.9134 44.2717 18.9271C36.3268 22.9178 28.9756 28.2051 24.227 35.3007C23.0489 37.0632 22.0444 38.9627 21.2591 40.8439C20.5559 42.789 19.9623 44.7979 19.6792 46.88C19.4144 48.953 19.2774 51.0717 19.4875 53.1538L19.5422 53.9393L19.661 54.7153C19.7432 55.2267 19.8162 55.7472 19.9075 56.2677C20.1723 57.2723 20.355 58.3042 20.7385 59.2722C20.839 59.5827 20.9486 59.9024 21.0673 60.2311C21.1951 60.5507 21.3595 60.8704 21.5056 61.2083C21.6517 61.5462 21.8069 61.8839 21.9622 62.231C22.1448 62.5597 22.3366 62.8885 22.5284 63.2173C22.7201 63.546 22.8845 63.9023 23.1037 64.2128C23.3229 64.5233 23.5329 64.8427 23.7521 65.1532C24.1448 65.8107 24.6562 66.3313 25.0762 66.8884C26.8478 69.0344 28.592 70.468 28.0167 71.3812C27.7154 71.8287 27.1127 72.0114 26.1721 71.911C25.7155 71.8471 25.131 71.7832 24.5557 71.5184C23.9713 71.2718 23.3137 70.943 22.6014 70.532C19.8253 68.8152 16.6474 64.9798 15.0584 59.6193C13.1681 53.1447 13.4786 46.2318 15.652 39.9307C17.9259 33.5931 21.9896 28.3239 26.7291 23.9862C31.4869 19.6577 36.9296 16.3063 42.5458 13.521C45.3493 12.1238 48.2258 10.8909 51.1207 9.75851L53.285 8.89101C54.0156 8.61705 54.7461 8.37953 55.4858 8.1147C56.9561 7.62157 58.4081 7.05548 59.8966 6.60801C77.22 1.11967 95.7762 -0.42367 113.803 2.00544C122.816 3.23826 131.692 5.43905 140.231 8.59872C144.514 10.1146 148.714 11.9685 152.787 14.1876C156.842 16.425 160.741 19.1098 164.166 22.4156C170.339 28.3331 174.704 36.5517 174.969 45.5102C175.097 49.9666 173.974 54.551 171.791 58.423C170.759 60.4046 169.389 62.1579 167.974 63.8199C166.504 65.4363 164.933 66.934 163.253 68.249C156.522 73.5365 148.742 76.7783 141.107 79.4083C133.446 82.0931 125.592 84.2484 117.638 85.883C110.168 87.4537 102.589 88.4491 94.9817 89.0426C87.3748 89.6088 79.7221 89.7913 72.0969 89.3621C64.4717 88.9512 56.8648 88.0654 49.34 86.6865L43.7146 85.5541L38.135 84.1935C34.4091 83.262 30.6742 82.093 27.0305 80.6684C20.7659 78.1754 14.5653 74.8881 9.45139 69.9111C4.3466 65.0072 0.602439 58.1398 0.109311 50.8068C-0.466005 43.5195 1.79875 36.4057 5.6068 30.5247C7.52452 27.575 9.86232 24.8903 12.5745 22.6439C15.2593 20.4065 18.2272 18.5526 21.3504 17.0732C24.2817 15.6761 27.624 14.3885 31.149 13.4936C34.6648 12.5895 38.3451 12.0325 41.87 11.9138C44.7831 11.8042 48.6642 11.9684 52.454 12.4798C56.2529 12.9638 59.9605 13.8223 62.6727 14.5894C64.9922 15.2834 67.403 16.0049 69.6678 16.6806C74.8913 18.1783 78.0327 19.5206 79.366 20.4978C80.7084 21.484 80.2335 22.1324 78.1514 22.5982C77.2382 22.8082 77.8318 23.7487 75.3205 23.1916C75.22 23.1734 75.01 23.1279 74.9096 23.1096C67.1839 21.8037 59.9148 18.9179 52.1435 17.9225C47.3949 17.3289 42.6462 17.2285 37.9615 17.7764C33.2859 18.3517 28.6925 19.5207 24.4735 21.4567C22.364 22.4247 20.355 23.5753 18.4738 24.8994C16.5926 26.2327 14.8575 27.7212 13.3599 29.4197C10.3372 32.8077 8.00851 36.8714 6.80309 41.2365C5.57027 45.5742 5.40586 50.1949 6.65694 54.4139L6.87616 55.2085L7.17747 55.9848C7.38751 56.4962 7.56106 57.0258 7.78936 57.5281C8.30988 58.5052 8.74817 59.5279 9.39654 60.4411C9.9536 61.4091 10.6842 62.2675 11.3691 63.1624C11.7161 63.6008 12.127 63.9936 12.5106 64.4228C12.885 64.8429 13.2777 65.2536 13.7069 65.628L14.9671 66.7878L16.3186 67.8656C16.757 68.24 17.2318 68.5686 17.7158 68.8974C18.1998 69.2261 18.6564 69.5732 19.1496 69.8837C21.1221 71.1257 23.1768 72.2671 25.3319 73.2625C29.6239 75.2715 34.1899 76.7966 38.8473 78.0294C50.3992 81.0155 62.2617 82.9698 74.2064 83.472C80.1696 83.819 86.1511 83.6822 92.1143 83.39C95.0913 83.1525 98.0683 82.9881 101.027 82.5954C102.506 82.4127 103.995 82.2757 105.465 82.0474L109.876 81.3444C111.492 81.1161 113.081 80.7325 114.679 80.4038C116.278 80.0568 117.876 79.7553 119.455 79.326C121.044 78.9425 122.633 78.5589 124.232 78.1663C125.82 77.7371 127.409 77.3171 129.017 76.9336L128.907 76.961C130.578 76.5227 132.204 75.9655 133.848 75.4267C135.482 74.8787 137.135 74.3766 138.733 73.7465L143.573 71.9475C145.153 71.3174 146.715 70.6781 148.249 69.9749C154.02 67.3631 159.554 64.0208 163.508 59.5005C165.453 57.2358 166.942 54.7062 167.809 51.9666C168.293 50.6151 168.522 49.2089 168.65 47.7843C168.787 46.3597 168.723 44.9075 168.549 43.4555C167.8 37.6476 164.851 32.0588 160.732 27.7759C156.559 23.4108 151.29 20.1233 145.783 17.4841C144.861 17.0549 143.637 16.5985 142.313 16.0506Z" fill="black"/>
</svg>
